<svg width="848" height="226" viewBox="0 0 848 226" fill="none" xmlns="http://www.w3.org/2000/svg">
<path d="M534.07 56.7267H581.514L520.136 130.308L590.694 220.907H537.626L480.674 139.094V220.907H439.544V0H480.674V123.582L534.07 56.7267Z" fill="#1B1D20"/>
<path fill-rule="evenodd" clip-rule="evenodd" d="M0 0.0354025H82.8505C134.159 0.0354025 166.027 30.5588 166.027 70.9846C166.027 112.672 129.379 144.185 81.8979 144.185H42.6998V220.943H0V0.0354025ZM42.6998 108.896H78.7047V108.86C105.157 108.86 123.645 96.5343 123.645 71.6835C123.645 46.8326 106.11 35.3784 79.6663 35.3784H42.6998V108.896Z" fill="#1B1D20"/>
<path fill-rule="evenodd" clip-rule="evenodd" d="M241.62 51.2628C293.265 51.2628 312.378 80.8605 312.378 121.286L312.351 165.424C312.351 190.175 313.204 208.672 317.286 220.898H276.174C273.743 212.775 273.153 202.909 273.153 196.438V190.992H272.836C268.3 207.302 254.692 225.346 221.209 225.346C185.204 225.346 163.533 203.699 163.533 176.007C163.533 133.848 210.668 127.14 235.633 123.592C237.429 123.328 239.108 123.092 240.65 122.856C262.004 119.671 272.201 116.494 272.201 102.489C272.201 89.4376 260.725 81.7954 241.929 81.7954C225.673 81.7954 213.562 91.3436 209.426 106.628H170.862C175.652 79.5898 198.276 51.2628 241.62 51.2628ZM232.395 195.131C253.422 195.131 272.863 182.714 272.863 144.521V130.517C269.044 138.468 260.435 145.792 236.223 150.566C214.233 155.059 204.355 161.703 204.355 174.119C204.355 185.9 213.916 195.131 232.395 195.131Z" fill="#1B1D20"/>
<path fill-rule="evenodd" clip-rule="evenodd" d="M658.423 51.5814C609.346 51.5814 573.649 87.8865 573.649 138.151C573.649 190.675 608.384 226 658.105 226C697.938 226 726.613 205.315 736.492 172.532H695.67C689.61 186.854 674.951 192.899 657.742 192.899C633.848 192.899 616.013 176.353 612.811 149.932H739.005V141.972C738.724 93.2778 713.551 51.5814 658.423 51.5814ZM613.165 122.567C616.993 98.6963 633.249 82.7766 657.778 82.7766C684.231 82.7766 696.977 101.238 699.508 122.567H613.165Z" fill="#1B1D20"/>
<path d="M373.795 56.3544V87.7129C381.27 64.6138 393.335 54.4394 426.174 54.4394V92.959C378.739 92.959 374.747 105.384 374.747 146.745V220.907H333.644V56.3544H373.795Z" fill="#1B1D20"/>
<path d="M795.621 87.7129V56.3544H755.47V220.907H796.573V146.745C796.573 105.384 800.565 92.959 848 92.959V54.4394C815.161 54.4394 803.096 64.6138 795.621 87.7129Z" fill="#1B1D20"/>
</svg>
